HIERARCHY
ROOT Hips
{
	OFFSET 0.000000 83.214638 0.000000
	CHANNELS 6 Xposition Yposition Zposition Xrotation Yrotation Zrotation
	JOINT Pelvis
	{
		OFFSET 0.000000 0.000000 0.000000
		CHANNELS 3 Xrotation Yrotation Zrotation
		JOINT LeftUpLeg
		{
			OFFSET 8.479700 -4.795502 -0.379100
			CHANNELS 3 Xrotation Yrotation Zrotation
			JOINT LeftLeg
			{
				OFFSET 0.024144 -32.555107 0.112900
				CHANNELS 3 Xrotation Yrotation Zrotation
				JOINT LeftFoot
				{
					OFFSET -0.024144 -32.638630 -3.012600
					CHANNELS 3 Xrotation Yrotation Zrotation
					JOINT LeftToeBase
					{
						OFFSET 0.970200 -13.225400 11.864200
						CHANNELS 3 Xrotation Yrotation Zrotation
						End Site
						{
							OFFSET 0.000000 12.319262 0.000000
						}
					}
					JOINT LFootTongue
					{
						OFFSET 1.142400 -1.059800 6.665200
						CHANNELS 3 Xrotation Yrotation Zrotation
						End Site
						{
							OFFSET 0.000000 12.319262 0.000000
						}
					}
				}
				JOINT LeftPantLeg
				{
					OFFSET 0.918482 -16.533964 -2.284700
					CHANNELS 3 Xrotation Yrotation Zrotation
					End Site
					{
						OFFSET 0.350399 24.744368 0.000000
					}
				}
			}
		}
		JOINT RightUpLeg
		{
			OFFSET -8.479700 -4.795502 -0.379100
			CHANNELS 3 Xrotation Yrotation Zrotation
			JOINT RightLeg
			{
				OFFSET -0.023144 -32.555092 0.112900
				CHANNELS 3 Xrotation Yrotation Zrotation
				JOINT RightFoot
				{
					OFFSET 0.023144 -32.638641 -3.012700
					CHANNELS 3 Xrotation Yrotation Zrotation
					JOINT RightToeBase
					{
						OFFSET -0.970200 -13.225400 11.864200
						CHANNELS 3 Xrotation Yrotation Zrotation
						End Site
						{
							OFFSET 0.000000 12.319244 0.000000
						}
					}
					JOINT RFootTongue
					{
						OFFSET -1.142200 -1.059800 6.665200
						CHANNELS 3 Xrotation Yrotation Zrotation
						End Site
						{
							OFFSET 0.000000 12.319243 0.000000
						}
					}
				}
				JOINT RightPantLeg
				{
					OFFSET -0.919482 -16.533978 -2.284800
					CHANNELS 3 Xrotation Yrotation Zrotation
					End Site
					{
						OFFSET -0.350400 24.744419 0.000000
					}
				}
			}
		}
	}
	JOINT Spine
	{
		OFFSET 0.000000 7.722000 1.166200
		CHANNELS 3 Xrotation Yrotation Zrotation
		JOINT Spine1
		{
			OFFSET 0.000000 12.024101 0.248800
			CHANNELS 3 Xrotation Yrotation Zrotation
			JOINT Spine2
			{
				OFFSET 0.000000 11.502998 -0.491200
				CHANNELS 3 Xrotation Yrotation Zrotation
				JOINT Neck
				{
					OFFSET 0.000000 18.430702 -3.123100
					CHANNELS 3 Xrotation Yrotation Zrotation
					JOINT Head
					{
						OFFSET 0.000000 9.051102 1.034000
						CHANNELS 3 Xrotation Yrotation Zrotation
						JOINT HairB
						{
							OFFSET 0.208400 24.786102 24.822300
							CHANNELS 3 Xrotation Yrotation Zrotation
							End Site
							{
								OFFSET 0.000000 32.263779 0.000000
							}
						}
						JOINT HairA
						{
							OFFSET -7.081100 24.428299 23.196600
							CHANNELS 3 Xrotation Yrotation Zrotation
							End Site
							{
								OFFSET 0.000000 32.263779 0.000000
							}
						}
						JOINT Hat
						{
							OFFSET 16.728800 15.048294 -15.439601
							CHANNELS 3 Xrotation Yrotation Zrotation
							End Site
							{
								OFFSET 0.000000 32.263779 0.000000
							}
						}
					}
				}
				JOINT LeftShoulder
				{
					OFFSET 6.197800 13.665199 -4.064700
					CHANNELS 3 Xrotation Yrotation Zrotation
					JOINT LeftArm
					{
						OFFSET 7.778100 -0.187103 -1.709300
						CHANNELS 3 Xrotation Yrotation Zrotation
						JOINT LeftForeArm
						{
							OFFSET 22.049376 0.000000 0.000000
							CHANNELS 3 Xrotation Yrotation Zrotation
							JOINT LeftHand
							{
								OFFSET 23.009392 0.000000 0.000000
								CHANNELS 3 Xrotation Yrotation Zrotation
								JOINT LeftHandThumb1
								{
									OFFSET 3.507191 -2.063065 3.133727
									CHANNELS 3 Xrotation Yrotation Zrotation
									JOINT LeftHandThumb2
									{
										OFFSET 3.101337 -1.790558 1.790558
										CHANNELS 3 Xrotation Yrotation Zrotation
										JOINT LeftHandThumb3
										{
											OFFSET 3.058640 -1.765907 1.765906
											CHANNELS 3 Xrotation Yrotation Zrotation
											End Site
											{
												OFFSET -0.415260 3.926476 -0.049563
											}
										}
									}
								}
								JOINT LeftHandIndex1
								{
									OFFSET 11.334419 -0.901459 3.706815
									CHANNELS 3 Xrotation Yrotation Zrotation
									JOINT LeftHandIndex2
									{
										OFFSET 3.283112 0.000000 0.000000
										CHANNELS 3 Xrotation Yrotation Zrotation
										JOINT LeftHandIndex3
										{
											OFFSET 3.323853 0.000000 0.000000
											CHANNELS 3 Xrotation Yrotation Zrotation
											End Site
											{
												OFFSET -1.135597 3.097809 0.402452
											}
										}
									}
								}
								JOINT LeftHandMiddle1
								{
									OFFSET 11.335861 0.000000 0.000000
									CHANNELS 3 Xrotation Yrotation Zrotation
									JOINT LeftHandMiddle2
									{
										OFFSET 3.410492 0.000000 0.000000
										CHANNELS 3 Xrotation Yrotation Zrotation
										JOINT LeftHandMiddle3
										{
											OFFSET 3.312172 0.000000 0.000000
											CHANNELS 3 Xrotation Yrotation Zrotation
											End Site
											{
												OFFSET -1.150200 3.080154 0.400270
											}
										}
									}
								}
								JOINT LeftHandRing1
								{
									OFFSET 11.514786 -0.013176 -3.003090
									CHANNELS 3 Xrotation Yrotation Zrotation
									JOINT LeftHandRing2
									{
										OFFSET 3.053307 0.000000 0.000000
										CHANNELS 3 Xrotation Yrotation Zrotation
										JOINT LeftHandRing3
										{
											OFFSET 3.295807 0.000000 0.000000
											CHANNELS 3 Xrotation Yrotation Zrotation
											End Site
											{
												OFFSET -1.281006 3.013344 0.375733
											}
										}
									}
								}
								JOINT LeftHandPinky1
								{
									OFFSET 10.518692 -0.960396 -5.730441
									CHANNELS 3 Xrotation Yrotation Zrotation
									JOINT LeftHandPinky2
									{
										OFFSET 2.861649 0.000000 0.000000
										CHANNELS 3 Xrotation Yrotation Zrotation
										JOINT LeftHandPinky3
										{
											OFFSET 2.863380 0.000000 0.000000
											CHANNELS 3 Xrotation Yrotation Zrotation
											End Site
											{
												OFFSET -0.843597 2.711159 0.369971
											}
										}
									}
								}
							}
							JOINT LSleeve
							{
								OFFSET 6.676277 -0.344902 -1.011730
								CHANNELS 3 Xrotation Yrotation Zrotation
								End Site
								{
									OFFSET 0.000000 14.885353 0.000000
								}
							}
						}
					}
				}
				JOINT RightShoulder
				{
					OFFSET -6.197800 13.665199 -4.064700
					CHANNELS 3 Xrotation Yrotation Zrotation
					JOINT RightArm
					{
						OFFSET -7.778100 -0.187103 -1.709300
						CHANNELS 3 Xrotation Yrotation Zrotation
						JOINT RightForeArm
						{
							OFFSET -22.049376 0.000000 0.000000
							CHANNELS 3 Xrotation Yrotation Zrotation
							JOINT RightHand
							{
								OFFSET -23.009392 0.000000 0.000000
								CHANNELS 3 Xrotation Yrotation Zrotation
								JOINT RightHandThumb1
								{
									OFFSET -3.507191 -2.063065 3.133727
									CHANNELS 3 Xrotation Yrotation Zrotation
									JOINT RightHandThumb2
									{
										OFFSET -3.101337 -1.790558 1.790558
										CHANNELS 3 Xrotation Yrotation Zrotation
										JOINT RightHandThumb3
										{
											OFFSET -3.058640 -1.765907 1.765906
											CHANNELS 3 Xrotation Yrotation Zrotation
											End Site
											{
												OFFSET 0.415260 3.926476 -0.049563
											}
										}
									}
								}
								JOINT RightHandIndex1
								{
									OFFSET -11.334419 -0.901459 3.706815
									CHANNELS 3 Xrotation Yrotation Zrotation
									JOINT RightHandIndex2
									{
										OFFSET -3.283112 0.000000 0.000000
										CHANNELS 3 Xrotation Yrotation Zrotation
										JOINT RightHandIndex3
										{
											OFFSET -3.323853 0.000000 0.000000
											CHANNELS 3 Xrotation Yrotation Zrotation
											End Site
											{
												OFFSET 1.135597 3.097809 0.402452
											}
										}
									}
								}
								JOINT RightHandMiddle1
								{
									OFFSET -11.335861 0.000000 0.000000
									CHANNELS 3 Xrotation Yrotation Zrotation
									JOINT RightHandMiddle2
									{
										OFFSET -3.410492 0.000000 0.000000
										CHANNELS 3 Xrotation Yrotation Zrotation
										JOINT RightHandMiddle3
										{
											OFFSET -3.312172 0.000000 0.000000
											CHANNELS 3 Xrotation Yrotation Zrotation
											End Site
											{
												OFFSET 1.150200 3.080154 0.400270
											}
										}
									}
								}
								JOINT RightHandRing1
								{
									OFFSET -11.514786 -0.013176 -3.003090
									CHANNELS 3 Xrotation Yrotation Zrotation
									JOINT RightHandRing2
									{
										OFFSET -3.053307 0.000000 0.000000
										CHANNELS 3 Xrotation Yrotation Zrotation
										JOINT RightHandRing3
										{
											OFFSET -3.295807 0.000000 0.000000
											CHANNELS 3 Xrotation Yrotation Zrotation
											End Site
											{
												OFFSET 1.281006 3.013344 0.375733
											}
										}
									}
								}
								JOINT RightHandPinky1
								{
									OFFSET -10.518692 -0.960396 -5.730441
									CHANNELS 3 Xrotation Yrotation Zrotation
									JOINT RightHandPinky2
									{
										OFFSET -2.861649 0.000000 0.000000
										CHANNELS 3 Xrotation Yrotation Zrotation
										JOINT RightHandPinky3
										{
											OFFSET -2.863380 0.000000 0.000000
											CHANNELS 3 Xrotation Yrotation Zrotation
											End Site
											{
												OFFSET 0.843597 2.711159 0.369971
											}
										}
									}
								}
							}
							JOINT RSleeve
							{
								OFFSET -6.676277 -0.344902 -1.011730
								CHANNELS 3 Xrotation Yrotation Zrotation
								End Site
								{
									OFFSET 0.000000 14.885353 0.000000
								}
							}
						}
					}
				}
				JOINT Backpack
				{
					OFFSET 0.000000 -2.471497 36.677502
					CHANNELS 3 Xrotation Yrotation Zrotation
					End Site
					{
						OFFSET 0.000000 20.427315 0.000000
					}
				}
				JOINT Hood
				{
					OFFSET 0.000000 18.754097 -10.431000
					CHANNELS 3 Xrotation Yrotation Zrotation
					JOINT Hood1
					{
						OFFSET 0.000000 -5.011002 -7.685901
						CHANNELS 3 Xrotation Yrotation Zrotation
						End Site
						{
							OFFSET 0.000000 9.175140 0.000000
						}
					}
				}
				JOINT LHoodieString
				{
					OFFSET 5.250500 16.397697 3.089900
					CHANNELS 3 Xrotation Yrotation Zrotation
					JOINT LHoodieString1
					{
						OFFSET 0.257700 -6.364304 3.694600
						CHANNELS 3 Xrotation Yrotation Zrotation
						JOINT LHoodieString2
						{
							OFFSET 0.000000 -9.643799 2.679100
							CHANNELS 3 Xrotation Yrotation Zrotation
							End Site
							{
								OFFSET 0.000000 10.009018 0.000000
							}
						}
					}
				}
				JOINT RHoodieString
				{
					OFFSET -5.250500 16.397697 3.089900
					CHANNELS 3 Xrotation Yrotation Zrotation
					JOINT RHoodieString1
					{
						OFFSET -0.257700 -6.364304 3.694600
						CHANNELS 3 Xrotation Yrotation Zrotation
						JOINT RHoodieString2
						{
							OFFSET 0.000000 -9.643799 2.679100
							CHANNELS 3 Xrotation Yrotation Zrotation
							End Site
							{
								OFFSET 0.000000 10.009018 0.000000
							}
						}
					}
				}
			}
			JOINT LBackpack_Strap
			{
				OFFSET 15.223200 -7.719803 -6.610900
				CHANNELS 3 Xrotation Yrotation Zrotation
				End Site
				{
					OFFSET 0.000000 16.040596 0.000000
				}
			}
			JOINT RBackpack_Strap
			{
				OFFSET -15.223000 -7.719803 -6.610900
				CHANNELS 3 Xrotation Yrotation Zrotation
				End Site
				{
					OFFSET 0.000000 16.040596 0.000000
				}
			}
		}
	}
	JOINT BoyFacialAnim_Joint
	{
		OFFSET 1.000000 -82.208099 -1.550900
		CHANNELS 3 Xrotation Yrotation Zrotation
		End Site
		{
			OFFSET 0.000000 30.012791 0.000000
		}
	}
}
MOTION
Frames: 4
Frame Time: 0.033333
-0.065885 74.951256 -2.628439 -11.492852 -32.276277 -3.533539 0.000001 0.000000 -0.000000 -30.695628 29.257009 15.453501 74.818001 -9.917777 2.941501 16.241358 4.433662 15.779807 -0.000000 0.000000 -0.000001 -0.000000 0.000000 -0.000000 -0.000004 0.000000 -0.000000 -25.420919 -2.259735 7.097519 51.251527 -5.431503 -10.311001 -16.386262 -0.243690 1.241408 0.000000 -0.000002 0.000000 0.000000 -0.000002 0.000000 0.000001 -0.000002 0.000001 13.662434 -4.523313 6.466968 2.026184 -2.342319 0.827088 2.015422 -2.337414 0.867631 13.152123 13.393349 -6.449621 16.976309 9.989559 4.216572 0.000001 -0.000002 -0.000002 0.000001 -0.000002 -0.000002 0.000001 -0.000002 -0.000002 0.252789 -11.739839 -12.807365 -52.262780 -16.401453 -40.618073 0.000043 -60.457174 0.000051 -132.812277 -1.600575 24.363717 1.567995 0.456376 2.719343 19.473189 -1.474908 7.636908 -0.000002 -0.000000 0.000001 -1.882819 2.129434 -39.817015 2.947091 5.081744 -60.200502 -0.000001 0.000000 -0.000002 0.405916 5.507053 -52.453158 3.387158 5.308607 -65.057477 0.000004 0.000000 -0.000001 -0.074377 5.736788 -61.061420 4.422089 5.674472 -75.840406 -0.000003 -0.000003 0.000001 2.216810 7.072459 -64.435438 4.422628 5.674643 -75.845774 -0.000003 -0.000001 -0.000000 -0.000003 -0.000001 0.000002 0.505175 5.257294 11.859097 -34.604173 63.980615 57.403430 0.000338 97.079780 -0.000395 -51.294594 -27.738993 -28.919694 8.377132 -4.904150 11.021990 21.620219 -18.183879 -18.379201 0.000001 -0.000000 0.000001 -1.101395 1.407126 15.159509 1.422356 -3.352184 45.974092 -0.000002 -0.000000 0.000002 3.413047 -7.186283 51.650249 6.296821 -4.359580 110.634673 0.000000 0.000001 -0.000002 -3.349039 -2.600444 57.010561 5.440873 -4.590884 99.698174 -0.000000 0.000000 -0.000001 -3.996456 -3.303946 64.593850 4.058863 -4.618677 82.610523 -0.000000 -0.000001 0.000002 0.000004 -0.000001 -0.000004 -0.000000 -0.000000 0.000000 -0.000000 -0.000000 0.000000 -0.000000 -0.000000 0.000000 -0.000000 -0.000000 0.000000 -0.000000 -0.000000 -0.000001 0.000000 0.000003 -0.000001 -0.000000 -0.000000 0.000000 -0.000000 -0.000000 -0.000001 0.000000 0.000003 -0.000001 0.000000 0.000004 -0.000001 0.000000 0.000004 -0.000001 0.000001 0.000000 -0.000000 
-0.538688 75.587509 0.144131 -13.112245 -28.187021 -4.298500 -0.000000 0.000000 -0.000000 -27.830302 29.838825 14.807946 73.877102 -9.480097 5.334933 22.425372 2.553878 14.369301 0.000000 -0.000000 -0.000001 0.000000 -0.000000 -0.000001 0.000002 -0.000000 -0.000000 -20.121654 -4.439807 4.068854 50.586560 -3.832928 -8.388957 -18.948017 -0.935900 1.083368 0.000000 -0.000003 0.000000 0.000000 -0.000003 0.000000 -0.000002 -0.000005 0.000002 11.587631 -4.037448 5.760167 0.864956 -1.339128 0.544694 0.850036 -1.342330 0.548427 12.254507 11.282077 -6.138703 19.320172 5.970101 6.915070 0.000001 0.000001 -0.000002 0.000001 0.000001 -0.000002 0.000001 0.000001 -0.000002 -1.369649 -10.760698 -12.772637 -32.984397 -22.452346 -38.329335 0.000060 -61.351375 0.000055 -138.090429 10.348417 7.460721 0.799836 -7.315895 1.850545 21.394799 -1.681366 9.094214 -0.000002 0.000003 -0.000002 -1.944892 2.180037 -40.627519 2.990171 5.106069 -60.685568 -0.000001 0.000001 -0.000002 -1.012914 4.705681 -55.536015 3.263609 5.249644 -63.714778 0.000002 -0.000001 0.000004 -0.184501 5.657202 -60.807562 4.642982 5.725412 -78.064165 0.000000 0.000000 0.000003 5.472882 8.960427 -61.175709 4.569957 5.709572 -77.330992 0.000001 -0.000001 0.000003 -0.000000 -0.000003 -0.000002 13.935868 9.093633 16.262668 -23.190014 57.748737 35.488659 0.000190 99.782234 -0.000203 -53.096426 -27.300123 -28.926155 8.519423 -3.050851 11.466798 21.656168 -18.274258 -18.356748 0.000002 -0.000000 0.000001 -1.760594 2.873130 16.986124 1.754451 -3.643465 51.413211 0.000001 0.000000 0.000004 2.484884 -6.467201 52.109258 6.286584 -4.363421 110.500091 0.000001 0.000002 -0.000005 -4.222071 -2.125993 57.517972 5.451132 -4.589129 99.826760 -0.000001 -0.000001 0.000000 -4.735214 -3.039669 65.061500 4.073922 -4.620610 82.797527 -0.000000 -0.000002 -0.000004 0.000002 0.000000 0.000000 -0.000000 -0.000002 -0.000000 -0.000000 -0.000002 -0.000000 -0.000000 -0.000002 -0.000000 -0.000000 -0.000002 -0.000000 -0.000000 -0.000002 -0.000001 -0.000000 -0.000002 0.000000 -0.000000 -0.000002 -0.000000 -0.000000 -0.000002 -0.000001 -0.000000 -0.000002 0.000000 -0.000000 0.000001 -0.000000 -0.000000 0.000001 -0.000000 -0.000000 0.000000 -0.000000 
-1.049378 76.338989 3.081018 -13.194316 -23.960966 -4.059311 0.000001 0.000000 -0.000000 -25.217146 28.228863 12.661372 72.589215 -9.350494 7.290008 28.314793 0.502710 11.311691 -0.000002 0.000000 -0.000001 -0.000002 0.000000 -0.000001 -0.000001 0.000001 -0.000000 -15.513870 -5.572426 2.085124 48.663045 -3.308771 -6.833699 -20.720636 -1.838920 1.407686 -0.000000 0.000001 -0.000000 -0.000000 0.000001 -0.000000 0.000003 -0.000001 0.000001 9.322484 -3.513998 4.986183 -1.075163 -0.367144 0.096830 -1.100030 -0.371747 0.079827 9.387698 9.185534 -6.918605 16.582571 -0.157597 6.622949 -0.000001 0.000001 -0.000000 -0.000001 0.000001 -0.000000 -0.000001 0.000001 -0.000000 -0.581975 -10.253719 -14.525478 -17.555775 -24.066272 -37.138932 -0.000015 -65.443683 -0.000014 -131.365138 7.953518 3.772527 5.162076 -14.732834 -0.723628 22.671584 -2.074699 7.875487 -0.000001 -0.000003 0.000001 -0.161689 4.409699 -42.808545 3.070784 5.150325 -61.587529 -0.000000 0.000000 -0.000002 -1.630136 4.833988 -60.832144 3.175143 5.205200 -62.743750 0.000007 -0.000001 0.000002 -0.253559 5.635818 -61.034263 5.123128 5.805773 -82.841029 0.000001 -0.000003 -0.000006 5.978944 9.283577 -60.597452 4.683354 5.733767 -78.468280 -0.000000 0.000001 -0.000004 -0.000001 -0.000003 -0.000003 14.126250 6.660169 14.810126 -10.691113 52.758096 29.666636 -0.000205 97.619468 0.000211 -54.486748 -23.039171 -24.723603 8.274093 -2.459674 11.441942 21.632048 -18.190349 -18.375746 -0.000004 0.000001 0.000001 -1.970751 3.447252 17.290656 1.827111 -3.700161 52.547698 -0.000000 0.000000 0.000002 2.167788 -6.220649 52.226218 6.285272 -4.363921 110.482893 0.000001 0.000001 -0.000002 -4.557686 -1.933876 57.668681 5.452422 -4.588920 99.842571 0.000001 0.000000 -0.000001 -5.036590 -2.923389 65.218369 4.073705 -4.620570 82.795068 -0.000001 0.000000 -0.000003 0.000005 0.000000 -0.000002 0.000000 -0.000002 0.000000 0.000000 -0.000002 0.000000 0.000000 -0.000002 0.000000 0.000000 -0.000002 0.000000 0.000000 -0.000002 -0.000000 0.000000 0.000002 -0.000000 0.000000 -0.000002 0.000000 0.000000 -0.000002 -0.000000 0.000000 0.000002 -0.000000 -0.000000 0.000002 -0.000000 -0.000000 0.000002 -0.000000 0.000001 0.000000 -0.000000 
-1.484850 77.005463 5.961067 -12.736473 -19.939211 -3.156970 -0.000002 -0.000000 -0.000000 -22.805173 25.474922 9.815280 71.273024 -9.621132 8.336784 32.272091 -1.028222 7.591784 -0.000001 -0.000000 -0.000000 -0.000001 -0.000000 0.000000 0.000003 0.000000 0.000000 -11.514616 -5.453630 1.203306 46.490833 -4.463681 -6.080401 -21.981711 -2.938937 2.066842 -0.000000 0.000000 0.000000 -0.000000 0.000000 0.000000 0.000002 0.000001 -0.000000 7.175852 -2.934810 3.961447 -2.777993 0.631394 -0.788096 -2.834463 0.605089 -0.841333 3.778931 7.099470 -7.369555 9.278236 -6.712984 4.316295 0.000000 0.000001 -0.000000 0.000000 0.000001 -0.000000 0.000000 0.000001 -0.000000 0.961305 -10.514723 -16.948438 -7.187929 -22.088979 -36.818948 -0.000011 -65.948359 -0.000027 -122.116747 5.254751 3.792456 11.298097 -24.018010 -5.067731 24.392793 -2.768432 5.442940 -0.000002 -0.000001 -0.000001 2.215259 6.936335 -49.384071 3.128444 5.180981 -62.228050 -0.000001 -0.000002 -0.000002 -1.250085 5.690068 -67.520525 3.155930 5.195300 -62.531905 0.000008 0.000002 0.000001 -0.153968 5.701455 -61.179247 5.977833 5.849709 -91.243657 0.000001 -0.000002 -0.000001 6.095769 9.352148 -60.605935 5.259621 5.821216 -84.188365 0.000000 0.000001 -0.000002 -0.000001 0.000001 0.000000 11.215902 3.485433 11.973435 -0.493759 49.088389 29.586641 -0.017652 92.721095 0.017579 -56.173747 -18.430195 -18.993127 8.274125 -2.459657 11.441938 21.632039 -18.190373 -18.375755 0.000001 0.000002 0.000000 -1.970744 3.447253 17.290663 1.827115 -3.700165 52.547671 0.000000 0.000000 0.000004 2.167785 -6.220654 52.226218 6.285272 -4.363896 110.482879 0.000001 0.000001 -0.000000 -4.557681 -1.933888 57.668681 5.452420 -4.588908 99.842565 -0.000000 0.000000 0.000000 -5.036581 -2.923385 65.218369 4.073728 -4.620570 82.795061 -0.000001 -0.000002 0.000005 0.000001 -0.000002 -0.000002 -0.000001 0.000002 0.000000 -0.000001 0.000002 0.000000 -0.000001 0.000002 0.000000 -0.000001 0.000002 0.000000 -0.000001 0.000002 -0.000000 -0.000001 -0.000000 -0.000001 -0.000001 0.000002 0.000000 -0.000001 0.000002 -0.000000 -0.000001 -0.000000 -0.000001 -0.000000 0.000001 -0.000001 -0.000000 0.000001 -0.000001 -0.000002 -0.000000 -0.000000 
